<?xml version="1.0" encoding="iso-8859-1"?>
<!-- Uploaded to: SVG Repo, www.svgrepo.com, Generator: SVG Repo Mixer Tools -->
<svg height="800px" width="800px" version="1.1" id="Layer_1" xmlns="http://www.w3.org/2000/svg" xmlns:xlink="http://www.w3.org/1999/xlink" 
	 viewBox="0 0 392.024 392.024" xml:space="preserve">
<g transform="translate(0 -1020.36)" shape-rendering="auto" image-rendering="auto" color-rendering="auto" color-interpolation="sRGB">
	<path style="fill:#484666;" d="M209.866,1078.477c-8.461,8.459-22.329,7.43-30.712-0.943c-6.39-6.387-5.934-14.5-5.934-14.5
		s-8.008,0.545-14.383-5.811c-8.381-8.379-9.397-22.252-0.945-30.709c3.882-3.859,9.043-5.729,14.057-5.908
		c12.113-0.305,36.028-0.24,36.028-0.24c4.49,0,8.116,3.658,8.032,8.15c0,0-0.389,22.729-0.354,33.896v0.16
		c0.013,5.061-1.081,11.238-5.788,15.943L209.866,1078.477z"/>
	<path style="fill:#D87070;" d="M198.526,1067.139c0.525-0.545,1.078-1.873,1.063-4.607c-0.03-8.807,0.122-19.279,0.236-26.102
		c-6.978,0.014-18.349,0.014-27.287,0.24h-0.118c-1.586,0-2.681,0.545-3.307,1.184c-1.714,1.717-1.894,5.193,0.945,8.031
		c2.196,2.195,9.214,2.715,9.214,2.715c4.775-0.24,8.693,3.73,8.387,8.504c0,0,0.524,6.902,2.717,9.094h0.118
		c2.841,2.836,6.321,2.656,8.032,0.943L198.526,1067.139z"/>
	<path style="fill:#BD5858;" d="M199.816,1036.418c-1.694,0.004-4.511,0-6.626,0c-0.115,6.824-0.249,17.277-0.219,26.063
		c0.015,2.734-0.538,4.049-1.063,4.594c-0.016,0.016-0.046,0.016-0.062,0c2.528,1.66,5.236,1.424,6.688,0
		c0.525-0.545,1.078-1.859,1.063-4.594c-0.03-8.807,0.104-19.303,0.219-26.125L199.816,1036.418z"/>
	<path style="fill:#484666;" d="M46.868,1098.795c9.306-9.305,24.584-8.131,33.902,1.184c7.557,7.553,5.413,17.752,5.413,17.752
		s10.498-1.961,18.33,5.871c9.315,9.311,10.361,24.594,1.063,33.896c0,0,0,0,0,0.16c-4.245,4.221-9.97,6.203-15.592,6.377
		c-14.092,0.367-41.934,0.367-41.934,0.367c-4.49,0-8.116-3.66-8.032-8.148c0,0,0.518-26.668,0.472-39.686
		c-0.032-5.732,1.209-12.545,6.379-17.717L46.868,1098.795z"/>
	<path style="fill:#F47D95;" d="M58.208,1110.131c-0.969,0.977-1.672,3-1.654,6.379c0.037,10.701-0.228,24.412-0.354,31.771
		c7.486-0.014,22.409,0,33.311-0.24h0.118c2.109-0.16,3.71-0.881,4.725-1.887c2.484-2.582,2.553-7.488-1.181-11.221
		c-2.447-2.443-12.757-2.836-12.757-2.836c-5.292,0.545-9.657-4.088-8.741-9.33c0,0,0.199-9.014-2.244-11.457c0,0,0,0,0-0.16
		c-0.039,0-0.079,0-0.118,0c-3.759-3.652-8.571-3.598-11.104-1.072L58.208,1110.131z"/>
	<path style="fill:#C46672;" d="M63.293,1108.26v0.031c-1.187,0-2.261,0.208-3.25,0.656c1.211,0.464,2.387,1.137,3.5,2.219h0.125
		c2.66,3.141,2.325,7.78,2.25,11.625c-0.103,5.322,3.458,9.888,8.75,9.344c0,0,10.303,0.368,12.75,2.813
		c3.734,3.733,3.671,8.636,1.188,11.219c-0.997,0.991-2.6,1.733-4.656,1.875c1.991-0.027,3.742,0.009,5.563-0.031h0.125
		c2.109-0.16,3.704-0.9,4.719-1.906c1.242-1.291,1.889-3.141,1.75-5.156c-0.069-0.998-0.341-2.047-0.813-3.063
		c-0.003-0.007,0.003-0.024,0-0.031c-0.476-1.018-1.201-2.01-2.125-2.938c-0.612-0.611-1.69-1.091-3-1.469
		c-3.93-1.134-9.75-1.344-9.75-1.344c-1.339,0.138-2.591-0.082-3.719-0.531c-0.259-0.1-0.442-0.312-0.688-0.438
		c-2.963-1.513-4.928-4.718-4.344-8.313c0.002-0.022-0.003-0.041,0-0.063c0.002-0.011-0.002-0.02,0-0.031
		c0,0,0.057-4.358-0.719-7.844c-0.568-1.806-1.237-3.552-1.656-3.75c-0.94-0.914-1.921-1.619-2.938-2.094
		C65.336,1108.572,64.288,1108.324,63.293,1108.26z"/>
	<path style="fill:#484666;" d="M16.636,1211.715c10.115-10.119,26.803-9.455,36.973,0.703c8.283,8.287,6.927,18.822,6.927,18.822
		s10.924-0.977,19.415,7.518c10.169,10.172,10.944,26.852,0.827,36.969c-5.575,5.574-13.002,7.115-19.372,7.203
		c-14.797,0.24-45.124,1.408-45.124,1.408c-4.582,0.176-8.356-3.568-8.269-8.148c0,0,0.626-31.598,1.418-47.598
		C9.6,1221.37,13.241,1215.096,16.636,1211.715z"/>
	<path style="fill:#E4635D;" d="M27.976,1222.936c-1.529,1.535-2.469,3.701-2.599,6.377c-0.626,12.668-0.997,30.82-1.181,38.859
		c7.899-0.305,24.509-1.104,36.973-1.297c3.986,0,6.708-0.912,8.269-2.479c3.653-3.652,3.678-9.904-0.709-14.291
		c-3.311-3.309-14.647-3.545-14.647-3.545c-5.235,0.545-9.567-4.016-8.741-9.213c0,0,0.36-10.385-2.953-13.701
		c-4.384-4.385-10.76-4.359-14.411-0.703L27.976,1222.936z"/>
	<path style="fill:#BD5858;" d="M34.921,1220.26c-1.478,0-2.909,0.32-4.219,0.912c1.263,0.561,2.473,1.377,3.563,2.469
		c3.313,3.314,2.938,13.719,2.938,13.719c-0.826,5.197,3.516,9.73,8.751,9.188c0,0,11.347,0.256,14.658,3.563
		c4.386,4.387,4.341,10.629,0.688,14.281c-1.561,1.553-4.265,2.443-8.251,2.5c-9.725,0.16-20.181,0.641-28.847,0.992
		c-0.001,0,0.001,0.225,0,0.287c7.899-0.305,24.509-1.088,36.973-1.279c3.986,0,6.69-0.943,8.251-2.5
		c3.653-3.652,3.699-9.895-0.688-14.281c-3.311-3.309-14.658-3.563-14.658-3.563c-5.235,0.545-9.577-3.99-8.751-9.188
		c0,0,0.375-10.404-2.938-13.719c-2.192-2.191-4.871-3.289-7.47-3.377V1220.26z"/>
	<g>
		<g>
			<path style="fill:#484666;" d="M248.403,1276.758c-17.665,1.615-33.232,8.449-46.187,19.725
				c-25.909,22.549-41.657,60.658-50.085,106.299c-2.062,10.615,13.927,13.598,15.829,2.951
				c8.059-43.643,23.293-78.514,44.769-97.205c21.476-18.691,48.905-23.266,87.885-5.436c10.056,5.453,17.331-10.525,6.615-14.527
				C287.741,1281.481,266.908,1274.678,248.403,1276.758L248.403,1276.758z"/>
			<path style="fill:#484666;" d="M118.466,1188.413c-11.698,0.928-23.466,7.568-35.91,19.605
				c-8.882,7.357,3.471,20.102,11.104,11.455c10.878-10.521,19.635-14.605,26.106-15.119c6.471-0.48,11.699,1.961,17.601,7.914
				c11.803,11.91,22.47,38.049,30.949,66.26c3.072,10.236,18.429,5.629,15.356-4.607c-8.698-28.938-18.658-56.537-34.847-72.873
				C139.074,1191.635,128.722,1187.512,118.466,1188.413z"/>
			<path style="fill:#484666;" d="M281.478,1140.459c-11.181-0.703-21.349,3.32-29.531,9.922
				c-16.364,13.207-26.572,35.777-35.319,59.055c-5.248,10.535,11.793,17.025,14.884,5.668
				c8.427-22.426,18.852-42.941,30.476-52.322c5.812-4.693,11.442-6.82,18.427-6.377c6.985,0.416,15.872,3.791,26.696,12.164
				c8.597,8.061,19.707-6.434,9.686-12.639c-10.991-8.693-24.16-14.412-35.319-15.469L281.478,1140.459z"/>
			<path style="fill:#484666;" d="M134.649,1084.475c-10.92,0.607-22.469,5.121-34.965,13.582
				c-9.478,5.852,0.038,19.873,8.977,13.229c10.82-7.324,19.688-10.348,26.932-10.748c7.244-0.416,13.103,1.584,18.9,5.668
				c11.594,8.188,21.851,25.824,30.24,45.354c3.901,10.619,19.766,3.713,14.647-6.377c-8.784-20.451-19.283-40.512-35.674-52.086
				c-9.706-6.645-19.204-8.955-29.059-8.619L134.649,1084.475z"/>
		</g>
		<path style="fill:#484666;" d="M312.073,1326.719c-1.024,1.008-1.759,2.268-2.126,3.658L312.073,1326.719z"/>
		<path style="fill:#484666;" d="M375.387,1299.672c-10.115-10.119-26.803-9.455-36.973,0.703c-8.283,8.287-6.927,18.82-6.927,18.82
			s-10.924-0.977-19.415,7.518c-10.169,10.172-10.944,26.852-0.827,36.969c5.575,5.576,13.002,7.115,19.372,7.205
			c14.797,0.24,45.124,1.408,45.124,1.408c4.582,0.176,8.356-3.568,8.269-8.15c0,0-0.626-31.596-1.417-47.598
			c-0.301-6.188-2.633-12.297-7.206-16.889V1299.672z"/>
	</g>
	<path style="fill:#EB7282;" d="M364.047,1310.893c1.529,1.535,2.469,3.701,2.599,6.377c0.626,12.668,0.997,30.82,1.181,38.859
		c-7.898-0.305-24.509-1.104-36.973-1.297c-3.986,0-6.708-0.912-8.269-2.48c-3.653-3.652-3.678-9.904,0.709-14.291
		c3.311-3.307,14.647-3.545,14.647-3.545c5.235,0.545,9.567-4.014,8.741-9.211c0,0-0.36-10.387,2.953-13.701
		c4.384-4.385,10.76-4.359,14.411-0.703L364.047,1310.893z"/>
	<path style="fill:#C46672;" d="M357.117,1308.231c-0.936,0-1.881,0.367-2.813,0.656c1.154,0.447,2.229,1.104,3.125,2
		c1.529,1.535,2.464,3.697,2.594,6.375c0.622,12.588,1.002,30.51,1.188,38.625c1.901,0.16,5.21,0.191,6.626,0.256
		c-0.184-8.037-0.561-26.207-1.188-38.873c-0.13-2.678-1.065-4.84-2.594-6.377c-1.825-1.826-4.34-2.74-6.938-2.656L357.117,1308.231
		z"/>
	<g>
		<path style="fill:#484666;" d="M335.343,1163.961c-0.563,0.545-1.041,1.184-1.417,1.887L335.343,1163.961z"/>
		<path style="fill:#484666;" d="M369.245,1162.782c-9.306-9.305-24.584-8.131-33.902,1.184c-7.557,7.553-5.413,17.752-5.413,17.752
			s-10.498-1.961-18.33,5.871c-9.315,9.311-10.361,24.594-1.063,33.896c0,0,0,0,0,0.16c4.245,4.221,9.97,6.203,15.592,6.377
			c14.092,0.367,41.934,0.367,41.934,0.367c4.49,0,8.116-3.66,8.032-8.148c0,0-0.518-26.668-0.472-39.686
			c0.032-5.73-1.209-12.543-6.379-17.715L369.245,1162.782z"/>
	</g>
	<path style="fill:#D87070;" d="M357.905,1174.118c0.969,0.977,1.672,3,1.654,6.379c-0.037,10.701,0.228,24.412,0.354,31.771
		c-7.486-0.014-22.409,0-33.311-0.24h-0.118c-2.109-0.16-3.71-0.881-4.725-1.889c-2.484-2.58-2.553-7.486,1.181-11.219
		c2.447-2.443,12.757-2.836,12.757-2.836c5.292,0.545,9.657-4.088,8.741-9.332c0,0-0.199-9.014,2.244-11.455c0,0,0,0,0-0.16
		c0.04,0,0.078,0,0.118,0c3.759-3.652,8.571-3.598,11.104-1.072V1174.118z"/>
	<path style="fill:#BD5858;" d="M352.804,1172.325c-0.809,0-1.637,0.305-2.469,0.623c0.684,0.305,1.355,0.641,1.875,1.152
		c0.969,0.961,1.675,3.027,1.656,6.406c-0.037,10.691,0.217,24.354,0.344,31.719c1.656,0,4.409,0,5.688,0
		c-0.126-7.359-0.381-21.049-0.344-31.75c0.019-3.377-0.688-5.438-1.656-6.406c-1.266-1.264-3.105-1.906-5.094-1.781
		L352.804,1172.325z"/>
	<g>
		<path style="fill:#484666;" d="M275.218,1051.167c-0.757,0.736-1.359,1.627-1.772,2.6L275.218,1051.167z"/>
		<path style="fill:#484666;" d="M305.93,1050.223c-8.461-8.459-22.329-7.43-30.712,0.943c-6.39,6.387-5.934,14.5-5.934,14.5
			s-8.008-0.545-14.383,5.811c-8.381,8.379-9.397,22.252-0.945,30.709c3.882,3.859,9.043,5.729,14.057,5.908
			c12.113,0.305,36.028,0.24,36.028,0.24c4.49,0,8.116-3.658,8.032-8.148c0,0-0.389-22.729-0.354-33.898v-0.16
			c0.013-5.061-1.081-11.238-5.788-15.943L305.93,1050.223z"/>
	</g>
	<path style="fill:#F47D95;" d="M294.59,1061.559c0.525,0.545,1.078,1.873,1.063,4.607c-0.03,8.807,0.122,19.279,0.236,26.102
		c-6.978-0.014-18.349-0.012-27.287-0.24h-0.118c-1.586,0-2.681-0.545-3.307-1.184c-1.714-1.719-1.894-5.195,0.945-8.031
		c2.196-2.195,9.214-2.715,9.214-2.715c4.775,0.24,8.693-3.73,8.387-8.504c0,0,0.524-6.902,2.717-9.094h0.118
		c2.841-2.836,6.321-2.654,8.032-0.943L294.59,1061.559z"/>
	<path style="fill:#C46672;" d="M290.984,1060.325c-0.79,0-1.612,0.32-2.438,0.752c0.264,0.16,0.567,0.287,0.781,0.496
		c0.525,0.545,1.078,1.859,1.063,4.594c-0.03,8.795,0.134,19.238,0.25,26.063c1.62,0.004,3.908,0,5.251,0
		c-0.115-6.822-0.281-17.287-0.25-26.094c0.015-2.734-0.538-4.049-1.063-4.594c-0.856-0.848-2.155-1.344-3.594-1.248
		L290.984,1060.325z"/>
</g>
</svg>