<?xml version="1.0" encoding="iso-8859-1"?>
<!-- Uploaded to: SVG Repo, www.svgrepo.com, Generator: SVG Repo Mixer Tools -->
<svg height="800px" width="800px" version="1.1" id="Layer_1" xmlns="http://www.w3.org/2000/svg" xmlns:xlink="http://www.w3.org/1999/xlink" 
	 viewBox="0 0 392.472 392.472" xml:space="preserve">
<path style="fill:#FFFFFF;" d="M280.699,35.263c-30.384,0-58.57,15.192-75.248,40.792c-4.59,6.465-13.834,6.659-18.23,0
	c-16.743-25.471-44.865-40.792-75.248-40.792C60.06,37.267,17.846,75.15,21.919,124.281c4.655,51.976,44.865,81.972,87.531,113.648
	c39.564,29.414,80.356,59.798,93.931,109.511c57.212-50.618,167.305-160.711,167.305-222.255
	C370.751,75.667,330.347,35.263,280.699,35.263z"/>
<path style="fill:#194F82;" d="M280.699,13.477c-32.711,0-63.289,14.158-84.364,38.529c-21.075-24.372-51.717-38.529-84.364-38.529
	C48.295,14.318-3.617,62.221,0.198,126.221c5.495,61.737,51.588,96.065,96.194,129.293c42.602,31.677,82.812,61.673,89.083,113.842
	c1.422,8.469,10.15,12.735,17.842,7.047c7.758-6.465,189.156-160.194,189.156-251.087C392.537,63.643,342.371,13.477,280.699,13.477
	z M203.446,347.506c-13.64-49.648-54.368-80.032-93.931-109.446c-42.667-31.741-82.941-61.673-87.531-113.713
	C17.846,75.15,60.06,37.267,111.971,35.263c30.384,0,58.57,15.192,75.248,40.792c4.396,6.659,13.705,6.465,18.23,0
	c16.743-25.471,44.865-40.792,75.248-40.792c49.584,0,90.053,40.339,90.053,90.053C370.751,186.795,260.658,296.888,203.446,347.506
	z"/>
<path style="fill:#FFC10D;" d="M212.109,310.463c-20.945-38.917-56.824-65.616-89.471-89.859
	c-40.275-29.996-78.804-55.725-78.804-98.133c0-52.17,48.356-65.293,68.331-65.293c23.014,0,44.347,11.572,57.018,30.901l0,0
	c12.929,19.717,41.826,19.717,54.691,0l0,0c12.671-19.329,34.004-30.901,57.018-30.901c37.624,0,68.202,30.578,68.202,68.202
	C349.095,166.69,277.725,249.178,212.109,310.463z"/>
<g>
	<path style="fill:#194F82;" d="M105.636,169.469H81.264v-62.578c0-3.814-3.103-6.982-6.853-6.982c-3.943,0-7.046,3.103-7.046,6.982
		v69.624c0,3.814,3.103,6.853,7.046,6.853h31.224c3.814,0,7.046-3.103,7.046-6.853C112.682,172.572,109.515,169.469,105.636,169.469
		z"/>
	<path style="fill:#194F82;" d="M152.634,100.039c-22.044,0-39.952,18.683-39.952,41.697s17.842,41.697,39.952,41.697
		s40.016-18.683,40.016-41.697C192.715,118.722,174.743,100.039,152.634,100.039z M152.634,169.469
		c-14.287,0-25.988-12.347-25.988-27.733s11.636-27.733,25.988-27.733c14.481,0,26.117,12.347,26.117,27.733
		S167.05,169.469,152.634,169.469z"/>
	<path style="fill:#194F82;" d="M249.798,104.435l-21.333,53.398l-21.463-53.398c-4.396-8.598-15.838-3.232-12.929,5.107
		l27.798,69.495c3.103,5.689,9.762,6.077,12.994,0l27.733-69.495C265.765,100.039,253.547,96.548,249.798,104.435z"/>
	<path style="fill:#194F82;" d="M318,113.938c3.943,0,7.046-3.103,7.046-7.046c0-3.814-3.103-6.982-7.046-6.982h-38.141
		c-3.943,0-7.046,3.103-7.046,6.982v69.624c0,3.814,3.103,6.853,7.046,6.853H318c3.943,0,7.046-3.103,7.046-6.853
		c0-3.943-3.103-7.046-7.046-7.046h-31.224v-20.881h24.372c3.814,0,6.853-3.103,6.853-6.853c0-3.75-3.103-6.853-6.853-6.853h-24.372
		v-20.881H318V113.938z"/>
</g>
</svg>