<?xml version="1.0" encoding="iso-8859-1"?>
<!-- Uploaded to: SVG Repo, www.svgrepo.com, Generator: SVG Repo Mixer Tools -->
<svg height="800px" width="800px" version="1.1" id="Layer_1" xmlns="http://www.w3.org/2000/svg" xmlns:xlink="http://www.w3.org/1999/xlink" 
	 viewBox="0 0 512 512" xml:space="preserve">
<g>
	<path style="fill:#D23C69;" d="M170.489,332.96c12.284,0,22.242-9.958,22.242-22.242c0-5.869-5.075-23.893-10.377-41.12
		l-23.978,0.808c-5.211,16.98-10.129,34.535-10.129,40.312C148.247,323.003,158.205,332.96,170.489,332.96z"/>
	<path style="fill:#D23C69;" d="M111.98,247.903c5.083,2.935,23.229,7.552,40.8,11.574l11.289-21.171
		c-12.1-13.003-24.843-26.038-29.847-28.927c-10.639-6.142-24.241-2.497-30.383,8.142C97.697,228.16,101.341,241.761,111.98,247.903
		z"/>
	<path style="fill:#D23C69;" d="M188.197,259.477c17.572-4.022,35.717-8.639,40.8-11.574c10.639-6.142,14.283-19.746,8.142-30.383
		c-6.141-10.638-19.745-14.283-30.383-8.142c-5.003,2.889-17.748,15.924-29.847,28.927L188.197,259.477z"/>
</g>
<g>
	<path style="fill:#FF507D;" d="M170.489,179.04c-12.284,0-22.242,9.958-22.242,22.242c0,5.869,5.075,23.893,10.377,41.12
		l23.978-0.808c5.211-16.98,10.129-34.535,10.129-40.312C192.73,188.997,182.772,179.04,170.489,179.04z"/>
	<path style="fill:#FF507D;" d="M228.997,264.097c-5.083-2.935-23.229-7.552-40.8-11.574l-11.289,21.17
		c12.1,13.003,24.843,26.038,29.847,28.927c10.639,6.142,24.241,2.497,30.383-8.141C243.28,283.843,239.636,270.239,228.997,264.097
		z"/>
	<path style="fill:#FF507D;" d="M152.78,252.523c-17.572,4.022-35.717,8.639-40.8,11.574c-10.639,6.142-14.283,19.746-8.142,30.383
		c6.141,10.638,19.745,14.283,30.383,8.141c5.003-2.889,17.748-15.924,29.847-28.927L152.78,252.523z"/>
</g>
<circle style="fill:#FFDC64;" cx="170.489" cy="256" r="17.102"/>
<path d="M84.977,316.393H16.568c-0.295,0-0.534-0.239-0.534-0.534V187.591c0-4.427-3.589-8.017-8.017-8.017S0,183.163,0,187.591
	v128.267c0,9.136,7.432,16.568,16.568,16.568h68.409c4.427,0,8.017-3.589,8.017-8.017S89.404,316.393,84.977,316.393z"/>
<path d="M387.082,180.085c-4.146-1.554-8.767,0.546-10.321,4.691l-49.226,131.27c-0.078,0.207-0.279,0.346-0.5,0.346h-5.25
	c-0.222,0-0.423-0.139-0.5-0.346l-49.226-131.27c-1.554-4.146-6.177-6.246-10.321-4.691c-4.145,1.555-6.247,6.175-4.691,10.321
	l49.226,131.27c2.411,6.43,8.645,10.751,15.513,10.751h5.25c6.868,0,13.101-4.32,15.513-10.751l49.226-131.27
	C393.328,186.26,391.228,181.639,387.082,180.085z"/>
<path d="M503.983,316.393h-76.96c-0.295,0-0.534-0.239-0.534-0.534v-51.841h34.739c4.427,0,8.017-3.589,8.017-8.017
	c0-4.427-3.589-8.017-8.017-8.017h-34.739v-51.841c0-0.295,0.239-0.534,0.534-0.534h76.96c4.427,0,8.017-3.589,8.017-8.017
	s-3.589-8.017-8.017-8.017h-76.96c-9.136,0-16.568,7.432-16.568,16.568v119.716c0,9.136,7.432,16.568,16.568,16.568h76.96
	c4.427,0,8.017-3.589,8.017-8.017S508.411,316.393,503.983,316.393z"/>
<path d="M247.104,236.472c2.092-7.807,1.019-15.962-3.023-22.961c-8.343-14.45-26.886-19.419-41.334-11.075
	c-0.587,0.339-1.281,0.779-2.151,1.409c0.114-1.079,0.152-1.902,0.152-2.563c0-16.684-13.574-30.259-30.259-30.259
	s-30.259,13.574-30.259,30.259c0,0.664,0.037,1.488,0.152,2.566c-0.869-0.63-1.567-1.075-2.151-1.412
	c-14.449-8.343-32.991-3.373-41.334,11.075c-4.041,6.999-5.115,15.154-3.023,22.961c2.092,7.807,7.1,14.333,14.098,18.373
	c0.587,0.339,1.315,0.719,2.297,1.158c-0.991,0.44-1.722,0.82-2.296,1.151c-6.999,4.041-12.007,10.566-14.099,18.373
	c-2.092,7.807-1.019,15.962,3.023,22.961c5.599,9.697,15.79,15.123,26.255,15.123c5.13,0,10.327-1.304,15.079-4.048
	c0.574-0.331,1.267-0.774,2.143-1.412c-0.111,1.068-0.145,1.888-0.145,2.566c0,16.684,13.574,30.259,30.259,30.259
	s30.259-13.574,30.259-30.259c0-0.679-0.034-1.499-0.145-2.568c0.876,0.638,1.57,1.082,2.144,1.413
	c4.753,2.745,9.948,4.048,15.079,4.048c10.466,0,20.657-5.428,26.255-15.123c4.041-6.999,5.115-15.154,3.023-22.961
	c-2.092-7.807-7.1-14.332-14.099-18.373c-0.574-0.331-1.305-0.711-2.296-1.151c0.98-0.438,1.708-0.819,2.296-1.158
	C240.005,250.805,245.012,244.28,247.104,236.472z M179.574,256c0,5.01-4.076,9.086-9.086,9.086s-9.086-4.076-9.086-9.086
	c0-5.01,4.076-9.086,9.086-9.086S179.574,250.99,179.574,256z M170.489,187.056c7.844,0,14.226,6.381,14.226,14.226
	c0,1.303-0.586,7.198-7.524,30.514c-2.136-0.592-4.38-0.915-6.702-0.915c-2.321,0-4.566,0.323-6.701,0.915
	c-6.934-23.302-7.525-29.204-7.525-30.514C156.263,193.438,162.645,187.056,170.489,187.056z M115.989,240.961
	c-3.291-1.899-5.645-4.967-6.628-8.638c-0.983-3.671-0.479-7.504,1.422-10.795c3.922-6.793,12.64-9.129,19.432-5.207
	c0.824,0.477,5.326,3.859,16.945,15.767c0.835,2.87,1.77,6.008,2.814,9.443c-0.873,1.236-1.639,2.551-2.282,3.938
	c-3.474,0.807-6.638,1.563-9.525,2.27C120.991,243.411,116.849,241.458,115.989,240.961z M130.214,295.678
	c-6.792,3.922-15.51,1.587-19.432-5.207c-1.899-3.291-2.405-7.124-1.422-10.795c0.983-3.671,3.337-6.738,6.628-8.638
	c1.135-0.655,6.539-3.094,30.181-8.739c1.159,4.468,3.521,8.454,6.715,11.596C136.156,291.571,131.342,295.026,130.214,295.678z
	 M170.489,324.944c-7.844,0-14.226-6.381-14.226-14.226c0-1.007,0.386-5.579,5.218-22.597c2.057-2.147,4.289-4.505,6.725-7.11
	c0.753,0.068,1.512,0.108,2.282,0.108c0.77,0,1.53-0.041,2.282-0.108c2.436,2.605,4.668,4.963,6.725,7.11
	c4.834,17.019,5.218,21.593,5.218,22.597C184.714,318.562,178.332,324.944,170.489,324.944z M230.196,290.472
	c-3.922,6.793-12.642,9.128-19.432,5.207c-1.129-0.652-5.943-4.108-22.672-21.782c3.195-3.143,5.557-7.128,6.715-11.596
	c23.642,5.646,29.047,8.084,30.181,8.739c3.291,1.899,5.645,4.967,6.628,8.638C232.599,283.348,232.095,287.181,230.196,290.472z
	 M231.616,232.323c-0.983,3.671-3.337,6.738-6.629,8.639c-0.875,0.505-5.025,2.455-22.177,6.779
	c-2.887-0.708-6.052-1.462-9.525-2.27c-0.642-1.385-1.409-2.702-2.282-3.938c1.039-3.416,1.967-6.534,2.799-9.391
	c12.33-12.704,16.096-15.32,16.961-15.819c6.793-3.921,15.511-1.587,19.432,5.207C232.095,224.819,232.6,228.652,231.616,232.323z"
	/>
</svg>