<?xml version="1.0" encoding="iso-8859-1"?>
<!-- Uploaded to: SVG Repo, www.svgrepo.com, Generator: SVG Repo Mixer Tools -->
<svg height="800px" width="800px" version="1.1" id="Layer_1" xmlns="http://www.w3.org/2000/svg" xmlns:xlink="http://www.w3.org/1999/xlink" 
	 viewBox="0 0 512 512" xml:space="preserve">
<path style="fill:#FBAC50;" d="M256,88.678c26.835-30.184,65.936-49.218,109.501-49.218c80.909,0,146.499,65.591,146.499,146.5
	c0,90.949-109.703,179.928-166.773,224.068C308.272,438.611,256,472.539,256,472.539s-52.272-33.928-89.227-62.511
	C109.703,365.889,0,276.91,0,185.961c0-80.909,65.589-146.5,146.499-146.5C190.064,39.461,229.165,58.496,256,88.678z"/>
<path style="fill:#F78750;" d="M256,88.678c26.835-30.184,65.936-49.218,109.501-49.218c80.909,0,146.499,65.591,146.499,146.5
	c0,90.949-109.703,179.928-166.773,224.068C308.272,438.611,256,472.539,256,472.539S256,164.73,256,88.678z"/>
<path style="fill:#BA3E17;" d="M265.813,186.297c0-25.924,19.857-49.366,47.298-49.366c28.13,0,46.608,24.959,46.608,49.918
	c0,25.648-19.581,49.366-47.16,49.366C284.566,236.215,265.813,211.531,265.813,186.297z M312.834,212.358
	c13.651,0,19.581-13.237,19.581-26.062c0-13.237-6.48-25.51-19.719-25.51c-13.513,0-19.581,12.961-19.581,25.786
	C293.116,199.672,299.459,212.358,312.834,212.358z"/>
<path style="fill:#FF648D;" d="M164.004,235.386v-97.904h26.889v74.463h44.402v23.442L164.004,235.386L164.004,235.386z"/>
<path style="fill:#88DEE0;" d="M180.688,265.258l19.167,64.121l18.892-64.121h28.268l-35.99,97.904h-22.339l-36.404-97.904H180.688z
	"/>
<path style="fill:#FD387E;" d="M347.652,339.721v23.442h-69.774v-97.904h68.533V288.7h-41.645v13.789h35.576v21.787h-35.576v15.443
	h42.886V339.721z"/>
</svg>